<?xml version="1.0" encoding="UTF-8" standalone="no"?>
<!DOCTYPE svg PUBLIC "-//W3C//DTD SVG 1.1//EN" "http://www.w3.org/Graphics/SVG/1.1/DTD/svg11.dtd">
<svg width="100%" height="100%" viewBox="0 0 19 19" version="1.1" xmlns="http://www.w3.org/2000/svg" xmlns:xlink="http://www.w3.org/1999/xlink" xml:space="preserve" xmlns:serif="http://www.serif.com/" style="fill-rule:evenodd;clip-rule:evenodd;stroke-linejoin:round;stroke-miterlimit:2;">
    <g transform="matrix(1,0,0,1,-2682,-408)">
        <g transform="matrix(1,0,0,1,-1.77529,-0.534585)">
            <g transform="matrix(1,0,0,1,9.68,-7)">
                <path d="M2692.3,420.771C2692.3,418.29 2690.28,416.276 2687.8,416.276L2678.81,416.276C2676.33,416.276 2674.31,418.29 2674.31,420.771L2674.31,429.762C2674.31,432.243 2676.33,434.257 2678.81,434.257L2687.8,434.257C2690.28,434.257 2692.3,432.243 2692.3,429.762L2692.3,420.771Z" style="fill:rgb(255,142,47);"/>
            </g>
            <g transform="matrix(4.21519e-17,0.688394,-0.688394,4.21519e-17,2978.4,-1399.2)">
                <path d="M2640.16,411.276L2644.25,417.942L2636.07,417.942L2640.16,411.276Z" style="fill:white;"/>
            </g>
        </g>
    </g>
</svg>
