<?xml version="1.0" encoding="UTF-8" standalone="no"?>
<!DOCTYPE svg PUBLIC "-//W3C//DTD SVG 1.1//EN" "http://www.w3.org/Graphics/SVG/1.1/DTD/svg11.dtd">
<svg width="100%" height="100%" viewBox="0 0 95 96" version="1.1" xmlns="http://www.w3.org/2000/svg" xmlns:xlink="http://www.w3.org/1999/xlink" xml:space="preserve" xmlns:serif="http://www.serif.com/" style="fill-rule:evenodd;clip-rule:evenodd;stroke-linejoin:round;stroke-miterlimit:2;">
    <g transform="matrix(1,0,0,1,-15727,-1143)">
        <g transform="matrix(0.9375,0,0,5.97022,14834.1,0)">
            <g id="インスタグラムのシンプルなロゴのアイコン-1" serif:id="インスタグラムのシンプルなロゴのアイコン 1" transform="matrix(0.197181,0,0,0.0309632,1003.19,199.539)">
                <g transform="matrix(1,0,0,1,-256,-256)">
                    <g>
                        <path d="M363.024,0L148.976,0C69.063,0 4.281,64.782 4.281,144.695L4.281,367.305C4.281,447.218 69.063,512 148.976,512L363.023,512C442.937,512 507.718,447.218 507.718,367.305L507.718,144.695C507.719,64.782 442.937,0 363.024,0ZM55.652,144.695C55.652,93.234 97.515,51.371 148.976,51.371L363.023,51.371C414.484,51.371 456.347,93.234 456.347,144.695L456.347,367.305C456.347,418.766 414.484,460.629 363.023,460.629L148.976,460.629C97.515,460.629 55.652,418.766 55.652,367.305L55.652,144.695Z" style="fill-rule:nonzero;"/>
                        <path d="M256,387.851C328.703,387.851 387.852,328.703 387.852,256C387.852,183.297 328.703,124.145 256,124.145C183.298,124.145 124.149,183.297 124.149,256C124.149,328.703 183.297,387.851 256,387.851ZM256,165.242C306.043,165.242 346.754,205.956 346.754,256C346.754,306.044 306.043,346.758 256,346.758C205.958,346.758 165.246,306.044 165.246,256C165.246,205.956 205.957,165.242 256,165.242Z" style="fill-rule:nonzero;"/>
                        <ellipse cx="391.707" cy="120.296" rx="29.539" ry="29.541"/>
                    </g>
                </g>
            </g>
        </g>
    </g>
</svg>
