<?xml version="1.0" encoding="UTF-8" standalone="no"?>
<!DOCTYPE svg PUBLIC "-//W3C//DTD SVG 1.1//EN" "http://www.w3.org/Graphics/SVG/1.1/DTD/svg11.dtd">
<svg width="100%" height="100%" viewBox="0 0 95 96" version="1.1" xmlns="http://www.w3.org/2000/svg" xmlns:xlink="http://www.w3.org/1999/xlink" xml:space="preserve" xmlns:serif="http://www.serif.com/" style="fill-rule:evenodd;clip-rule:evenodd;stroke-linejoin:round;stroke-miterlimit:2;">
    <g transform="matrix(1,0,0,1,-15727,-1024)">
        <g transform="matrix(0.9375,0,0,5.97022,14834.1,0)">
            <g id="FACEBOOK風のアイコン素材-その3" serif:id="FACEBOOK風のアイコン素材 その3" transform="matrix(0.197181,0,0,0.0309632,1003.19,179.572)">
                <g transform="matrix(1,0,0,1,-256,-256)">
                    <g>
                        <path d="M438.272,0L73.728,0C33.01,0 0,33.009 0,73.728L0,438.272C0,478.991 33.01,512 73.728,512L438.271,512C478.99,512 512,478.991 512,438.272L512,73.728C512,33.009 478.99,0 438.272,0ZM347.82,137.89L314.531,137.905C288.431,137.905 283.377,150.308 283.377,168.509L283.377,208.644L345.627,208.644L337.522,271.508L283.377,271.508L283.377,432.81L218.461,432.81L218.461,271.508L164.18,271.508L164.18,208.644L218.461,208.644L218.461,162.284C218.461,108.484 251.319,79.188 299.313,79.188C322.303,79.188 342.061,80.9 347.821,81.665L347.821,137.89L347.82,137.89Z" style="fill-rule:nonzero;"/>
                    </g>
                </g>
            </g>
        </g>
    </g>
</svg>
